<mxfile host="app.diagrams.net" agent="Mozilla/5.0 (Windows NT 10.0; Win64; x64) AppleWebKit/537.36 (KHTML, like Gecko) Chrome/140.0.0.0 Safari/537.36 Edg/140.0.0.0" version="28.2.5">
  <diagram name="ページ1" id="xeAbHZ4ksHOA6QCuuvVd">
    <mxGraphModel dx="1017" dy="460" grid="1" gridSize="10" guides="1" tooltips="1" connect="1" arrows="1" fold="1" page="1" pageScale="1" pageWidth="1169" pageHeight="827" math="0" shadow="0">
      <root>
        <mxCell id="0" />
        <mxCell id="1" parent="0" />
        <mxCell id="37EJw6HJvlE9nzPEwJ4M-1" value="顧客" style="shape=umlActor;verticalLabelPosition=bottom;verticalAlign=top;html=1;" vertex="1" parent="1">
          <mxGeometry x="190" y="150" width="30" height="60" as="geometry" />
        </mxCell>
        <mxCell id="37EJw6HJvlE9nzPEwJ4M-5" value="" style="endArrow=open;endFill=1;endSize=12;html=1;rounded=0;exitX=1;exitY=0.3333333333333333;exitDx=0;exitDy=0;exitPerimeter=0;" edge="1" parent="1" source="37EJw6HJvlE9nzPEwJ4M-1" target="37EJw6HJvlE9nzPEwJ4M-6">
          <mxGeometry width="160" relative="1" as="geometry">
            <mxPoint x="440" y="240" as="sourcePoint" />
            <mxPoint x="330" y="170" as="targetPoint" />
          </mxGeometry>
        </mxCell>
        <mxCell id="37EJw6HJvlE9nzPEwJ4M-6" value="お問い合わせ画面" style="shape=umlBoundary;whiteSpace=wrap;html=1;" vertex="1" parent="1">
          <mxGeometry x="280" y="130" width="100" height="80" as="geometry" />
        </mxCell>
        <mxCell id="37EJw6HJvlE9nzPEwJ4M-8" value="お問い合わせを入力し、送信ボタンを押す" style="ellipse;shape=umlControl;whiteSpace=wrap;html=1;" vertex="1" parent="1">
          <mxGeometry x="540" y="100" width="70" height="80" as="geometry" />
        </mxCell>
        <mxCell id="37EJw6HJvlE9nzPEwJ4M-9" value="" style="endArrow=open;endFill=1;endSize=12;html=1;rounded=0;exitX=1.037;exitY=0.533;exitDx=0;exitDy=0;exitPerimeter=0;entryX=0.195;entryY=0.9;entryDx=0;entryDy=0;entryPerimeter=0;" edge="1" parent="1" source="37EJw6HJvlE9nzPEwJ4M-6" target="37EJw6HJvlE9nzPEwJ4M-8">
          <mxGeometry width="160" relative="1" as="geometry">
            <mxPoint x="440" y="240" as="sourcePoint" />
            <mxPoint x="600" y="240" as="targetPoint" />
          </mxGeometry>
        </mxCell>
        <mxCell id="37EJw6HJvlE9nzPEwJ4M-10" value="" style="endArrow=open;endFill=1;endSize=12;html=1;rounded=0;" edge="1" parent="1" source="37EJw6HJvlE9nzPEwJ4M-8" target="37EJw6HJvlE9nzPEwJ4M-6">
          <mxGeometry width="160" relative="1" as="geometry">
            <mxPoint x="450" y="220" as="sourcePoint" />
            <mxPoint x="600" y="240" as="targetPoint" />
          </mxGeometry>
        </mxCell>
        <mxCell id="37EJw6HJvlE9nzPEwJ4M-11" value="送信できなかった場合" style="text;html=1;align=center;verticalAlign=middle;resizable=0;points=[];autosize=1;strokeColor=none;fillColor=none;rotation=-5;" vertex="1" parent="1">
          <mxGeometry x="400" y="125" width="140" height="30" as="geometry" />
        </mxCell>
        <mxCell id="37EJw6HJvlE9nzPEwJ4M-12" value="システムにお問い合わせを登録" style="ellipse;shape=umlControl;whiteSpace=wrap;html=1;" vertex="1" parent="1">
          <mxGeometry x="680" y="170" width="70" height="80" as="geometry" />
        </mxCell>
        <mxCell id="37EJw6HJvlE9nzPEwJ4M-14" value="" style="endArrow=open;endFill=1;endSize=12;html=1;rounded=0;exitX=0.976;exitY=0.617;exitDx=0;exitDy=0;exitPerimeter=0;entryX=0.024;entryY=0.592;entryDx=0;entryDy=0;entryPerimeter=0;" edge="1" parent="1" source="37EJw6HJvlE9nzPEwJ4M-8" target="37EJw6HJvlE9nzPEwJ4M-12">
          <mxGeometry width="160" relative="1" as="geometry">
            <mxPoint x="440" y="240" as="sourcePoint" />
            <mxPoint x="600" y="240" as="targetPoint" />
          </mxGeometry>
        </mxCell>
        <mxCell id="37EJw6HJvlE9nzPEwJ4M-15" value="受付完了メッセージの表示された画面" style="shape=umlBoundary;whiteSpace=wrap;html=1;" vertex="1" parent="1">
          <mxGeometry x="460" y="240" width="100" height="80" as="geometry" />
        </mxCell>
        <mxCell id="37EJw6HJvlE9nzPEwJ4M-16" value="" style="endArrow=open;endFill=1;endSize=12;html=1;rounded=0;exitX=0.014;exitY=0.808;exitDx=0;exitDy=0;exitPerimeter=0;entryX=1.017;entryY=0.35;entryDx=0;entryDy=0;entryPerimeter=0;" edge="1" parent="1" source="37EJw6HJvlE9nzPEwJ4M-12" target="37EJw6HJvlE9nzPEwJ4M-15">
          <mxGeometry width="160" relative="1" as="geometry">
            <mxPoint x="430" y="280" as="sourcePoint" />
            <mxPoint x="590" y="280" as="targetPoint" />
          </mxGeometry>
        </mxCell>
      </root>
    </mxGraphModel>
  </diagram>
</mxfile>
